# xmcd CD database file
#
# Track frame offsets:
#	150
#	22072
#	42067
#	66915
#	88577
#	111765
#	131417
#	150005
#	168677
#	186132
#	202965
#	228332
#	252430
#	271170
#	290392
#
# Disc length: 4133 seconds
#
# Revision: 7
# Processed by: cddbd v1.5.2PL0 Copyright (c) Steve Scherf et al.
# Submitted via: jetAudio 7
#
DISCID=c610230f
DTITLE=萬芳 - 萬芳 滾石 24K24Bit 珍藏版金碟系列
DYEAR=1998
DGENRE=Pop
TTITLE0=猜心
TTITLE1=新不了情
TTITLE2=多事的秋
TTITLE3=戀你
TTITLE4=試著瞭解
TTITLE5=我記得你眼裡的依戀
TTITLE6=一切如新
TTITLE7=斷線
TTITLE8=FLY AWAY
TTITLE9=割愛
TTITLE10=算了吧
TTITLE11=四季
TTITLE12=就值得了愛
TTITLE13=然後你怎麼說
TTITLE14=孩子氣
EXTD=YEAR: 1998
EXTT0=
EXTT1=
EXTT2=
EXTT3=
EXTT4=
EXTT5=
EXTT6=
EXTT7=
EXTT8=
EXTT9=
EXTT10=
EXTT11=
EXTT12=
EXTT13=
EXTT14=
PLAYORDER=
